<mxfile host="app.diagrams.net" agent="Mozilla/5.0 (Macintosh; Intel Mac OS X 10_15_7) AppleWebKit/605.1.15 (KHTML, like Gecko) Version/16.6.1 Safari/605.1.15" version="24.8.0">
  <diagram name="Page-1" id="Rm5-loyoK6L1a_ex0tON">
    <mxGraphModel dx="3220" dy="2206" grid="1" gridSize="10" guides="1" tooltips="1" connect="1" arrows="1" fold="1" page="1" pageScale="1" pageWidth="1169" pageHeight="827" math="0" shadow="0">
      <root>
        <mxCell id="0" />
        <mxCell id="1" parent="0" />
        <mxCell id="d591mGYJ-wh3OpJFqWXo-1" value="&lt;span style=&quot;text-align: start;&quot; id=&quot;docs-internal-guid-4495d54e-7fff-9dda-d356-6cdd1c44bd76&quot;&gt;&lt;p style=&quot;line-height: 1.38; margin-top: 0pt; margin-bottom: 0pt;&quot; dir=&quot;ltr&quot;&gt;&lt;span style=&quot;font-size: 11pt; font-family: Arial, sans-serif; font-variant-ligatures: normal; font-variant-alternates: normal; font-variant-numeric: normal; font-variant-east-asian: normal; font-variant-position: normal; vertical-align: baseline; white-space: pre-wrap;&quot;&gt;User Story: я&lt;/span&gt;&lt;span style=&quot;font-family: Arial, sans-serif; font-size: 11pt; white-space: pre-wrap;&quot;&gt;, как пользователь мобильного приложения «Новости» хочу получать список актуальных новостей своего района, чтобы быть в курсе происходящего рядом с местом моего проживания.&lt;/span&gt;&lt;/p&gt;&lt;/span&gt;" style="text;html=1;align=center;verticalAlign=middle;whiteSpace=wrap;rounded=0;" vertex="1" parent="1">
          <mxGeometry x="-2335" y="-1654" width="840" height="54" as="geometry" />
        </mxCell>
        <mxCell id="d591mGYJ-wh3OpJFqWXo-2" value="" style="rounded=1;whiteSpace=wrap;html=1;" vertex="1" parent="1">
          <mxGeometry x="-2320" y="-1570" width="190" height="330" as="geometry" />
        </mxCell>
        <mxCell id="d591mGYJ-wh3OpJFqWXo-3" value="Новости" style="text;html=1;align=center;verticalAlign=middle;whiteSpace=wrap;rounded=0;" vertex="1" parent="1">
          <mxGeometry x="-2255" y="-1560" width="60" height="30" as="geometry" />
        </mxCell>
        <mxCell id="d591mGYJ-wh3OpJFqWXo-4" value="" style="rounded=1;whiteSpace=wrap;html=1;" vertex="1" parent="1">
          <mxGeometry x="-2307.5" y="-1520" width="165" height="220" as="geometry" />
        </mxCell>
        <mxCell id="d591mGYJ-wh3OpJFqWXo-5" value="Обновить" style="rounded=1;whiteSpace=wrap;html=1;" vertex="1" parent="1">
          <mxGeometry x="-2293.75" y="-1280" width="137.5" height="30" as="geometry" />
        </mxCell>
        <mxCell id="d591mGYJ-wh3OpJFqWXo-6" value="20.10.24&lt;div&gt;Построили новую детскую площадку по адресу ...&lt;/div&gt;" style="rounded=1;whiteSpace=wrap;html=1;" vertex="1" parent="1">
          <mxGeometry x="-2291.87" y="-1500" width="133.75" height="60" as="geometry" />
        </mxCell>
        <mxCell id="d591mGYJ-wh3OpJFqWXo-7" value="19.10.24&lt;div&gt;Открылась бесплатная секция по боксу в школе ...&lt;/div&gt;" style="rounded=1;whiteSpace=wrap;html=1;" vertex="1" parent="1">
          <mxGeometry x="-2291.87" y="-1430" width="133.75" height="60" as="geometry" />
        </mxCell>
        <mxCell id="d591mGYJ-wh3OpJFqWXo-8" value="16.10.24&lt;div&gt;Закончен ремонт ФОКа ...&lt;/div&gt;" style="rounded=1;whiteSpace=wrap;html=1;" vertex="1" parent="1">
          <mxGeometry x="-2293.75" y="-1360" width="133.75" height="50" as="geometry" />
        </mxCell>
      </root>
    </mxGraphModel>
  </diagram>
</mxfile>
